<svg xmlns="http://www.w3.org/2000/svg" version="1.1" xmlns:xlink="http://www.w3.org/1999/xlink" xmlns:svgjs="http://svgjs.dev/svgjs" width="1000" height="1000" viewBox="0 0 1000 1000"><rect width="1000" height="1000" fill="#ffffff"></rect><g transform="matrix(0.7,0,0,0.7,149.57575758009563,445.32344839626484)"><svg viewBox="0 0 396 62" data-background-color="#ffffff" preserveAspectRatio="xMidYMid meet" height="156" width="1000" xmlns="http://www.w3.org/2000/svg" xmlns:xlink="http://www.w3.org/1999/xlink"><defs></defs><g id="tight-bounds" transform="matrix(1,0,0,1,0.24000000245405317,0.04346336475805401)"><svg viewBox="0 0 395.52 61.91307176255336" height="61.91307176255336" width="395.52"><g><svg viewBox="0 0 395.52 61.91307176255336" height="61.91307176255336" width="395.52"><g><svg viewBox="0 0 395.52 61.91307176255336" height="61.91307176255336" width="395.52"><g><svg viewBox="0 0 395.52 61.91307176255336" height="61.91307176255336" width="395.52"><g><svg viewBox="0 0 395.52 61.91307176255336" height="61.91307176255336" width="395.52"><g transform="matrix(1,0,0,1,0,0)"><svg width="395.52" viewBox="0.20000000298023224 -36.130001068115234 240.16000366210938 37.59000015258789" height="61.91307176255336" data-palette-color="#ffffff"><path d="M30.42-21.39L30.71-4.98Q29.57-3.54 27.88-2.47 26.2-1.39 24.27-0.68 22.34 0.02 20.31 0.38 18.29 0.73 16.46 0.73L16.46 0.73Q12.92 0.73 9.94-0.54 6.96-1.81 4.8-4.04 2.64-6.27 1.42-9.3 0.2-12.33 0.2-15.82L0.2-15.82Q0.2-18.48 0.81-21.03 1.42-23.58 2.55-25.84 3.69-28.1 5.32-29.99 6.96-31.88 9.03-33.25 11.11-34.62 13.57-35.38 16.04-36.13 18.85-36.13L18.85-36.13Q19.9-36.13 21.09-36.05 22.29-35.96 23.47-35.75 24.66-35.55 25.78-35.18 26.9-34.81 27.83-34.28L27.83-34.28 27.15-24.95Q25.78-25.46 24.33-25.65 22.88-25.83 21.48-25.83L21.48-25.83Q19.53-25.83 17.83-25.23 16.14-24.63 14.88-23.51 13.62-22.39 12.89-20.78 12.16-19.17 12.16-17.14L12.16-17.14Q12.16-15.87 12.5-14.69 12.84-13.5 13.54-12.59 14.23-11.67 15.27-11.11 16.31-10.55 17.68-10.55L17.68-10.55Q18.6-10.55 19.59-10.79 20.58-11.04 21.29-11.62L21.29-11.62 21.39-13.53 15.53-13.62 15.82-20.95Q19.46-21.07 23.1-21.15 26.73-21.24 30.42-21.39L30.42-21.39ZM33.18-35.21L55.69-35.21Q55.54-32.91 55.42-30.66 55.3-28.42 55.1-26.12L55.1-26.12 44.75-25.59 44.5-22.51 51.78-22.51 51.24-14.94 43.92-14.7 43.67-11.13 49.73-11.13 54.03-11.13Q53.88-8.45 53.72-5.8 53.56-3.15 53.44-0.49L53.44-0.49 32.39 0 33.18-35.21ZM55.71-34.86L82.32-34.91 82.08-24.56 74.8-24.27 72.94-1.12 62.64-0.59 62.69-23.73 55.41-23.34 55.71-34.86ZM111.32-19.38L111.32-19.38Q111.32-15.97 110.44-13.22 109.56-10.47 107.99-8.34 106.41-6.2 104.24-4.66 102.07-3.13 99.48-2.14 96.89-1.15 93.97-0.67 91.06-0.2 87.98-0.2L87.98-0.2Q86.83-0.2 85.73-0.26 84.64-0.32 83.49-0.44L83.49-0.44 84.17-33.2Q86.86-34.06 89.7-34.41 92.55-34.77 95.35-34.77L95.35-34.77Q98.85-34.77 101.77-33.72 104.7-32.67 106.83-30.69 108.95-28.71 110.14-25.85 111.32-23 111.32-19.38ZM101.31-17.48L101.31-17.82Q101.34-19.14 101.03-20.36 100.72-21.58 100.03-22.52 99.33-23.46 98.26-24.04 97.18-24.61 95.7-24.66L95.7-24.66 94.72-9.52Q96.18-9.74 97.38-10.49 98.58-11.23 99.44-12.32 100.31-13.4 100.79-14.73 101.26-16.06 101.31-17.48L101.31-17.48ZM141.4-23.54L141.4-23.54Q141.4-21.63 141.07-20.08 140.74-18.53 140.03-17.24 139.32-15.94 138.2-14.84 137.07-13.75 135.49-12.74L135.49-12.74 141.3-2.39 130.31-0.24 126.55-10.64 123.53-10.55 123.09-0.39 112.59-0.39Q112.71-5.96 112.82-11.47 112.93-16.99 113.08-22.56L113.08-22.56Q113.12-25.37 113.17-28.13 113.22-30.88 113.37-33.69L113.37-33.69Q115.08-34.33 116.74-34.74 118.4-35.16 120.07-35.39 121.74-35.62 123.46-35.71 125.19-35.79 126.99-35.79L126.99-35.79Q129.78-35.79 132.38-35.02 134.98-34.25 136.98-32.71 138.98-31.18 140.19-28.88 141.4-26.59 141.4-23.54ZM130.46-22.75L130.46-22.75Q130.46-23.78 130.18-24.63 129.9-25.49 129.35-26.11 128.8-26.73 127.98-27.09 127.16-27.44 126.06-27.44L126.06-27.44Q125.58-27.44 125.11-27.38 124.65-27.32 124.21-27.2L124.21-27.2 123.82-18.12 124.4-18.12Q125.45-18.12 126.54-18.38 127.63-18.65 128.49-19.21 129.36-19.78 129.91-20.65 130.46-21.53 130.46-22.75ZM172.28-27.15L172.28-27.15Q172.28-25.34 172.11-23.17 171.94-21 171.55-18.68 171.15-16.36 170.53-13.98 169.91-11.6 168.98-9.4 168.05-7.2 166.82-5.29 165.59-3.37 163.99-1.94 162.39-0.51 160.41 0.31 158.43 1.12 156.02 1.12L156.02 1.12Q153.19 1.12 151.1 0.21 149.01-0.71 147.52-2.26 146.03-3.81 145.08-5.87 144.13-7.93 143.59-10.24 143.05-12.55 142.85-14.95 142.64-17.36 142.64-19.58L142.64-19.58Q142.64-23 142.98-26.4 143.32-29.81 143.96-33.2L143.96-33.2 155.38-32.76Q154.72-28.93 154.25-25.06 153.77-21.19 153.77-17.29L153.77-17.29Q153.77-16.87 153.81-16.05 153.84-15.23 153.94-14.22 154.04-13.21 154.22-12.15 154.41-11.08 154.72-10.21 155.04-9.33 155.49-8.76 155.94-8.2 156.55-8.2L156.55-8.2Q157.26-8.2 157.82-8.87 158.39-9.55 158.81-10.67 159.24-11.79 159.56-13.26 159.88-14.72 160.09-16.31 160.31-17.9 160.45-19.48 160.58-21.07 160.67-22.44 160.75-23.8 160.78-24.85 160.8-25.9 160.8-26.42L160.8-26.42Q160.8-28.32 160.74-30.21 160.68-32.1 160.56-33.98L160.56-33.98 171.98-33.98Q172.28-30.62 172.28-27.15ZM195.91-34.62L207.43-35.01 205.67-1.9 192.88-0.73 186.04-18.46 184.97-0.39 173.98-0.39 174.86-35.01 187.07-35.6 195.52-18.02 195.91-34.62ZM228.06-35.94L240.36-34.96 228.6-18.7 238.51-1.42 227.18 0.59 219.76-9.96 219.37 1.07 209.21 1.46 209.99-35.94 221.37-35.3 220.49-24.27 228.06-35.94Z" opacity="1" transform="matrix(1,0,0,1,0,0)" fill="#000000" class="undefined-text-0" data-fill-palette-color="primary" id="text-0"></path></svg></g></svg></g></svg></g></svg></g><g></g></svg></g></svg><rect width="395.52" height="61.91307176255336" fill="none" stroke="none" visibility="hidden"></rect></g></svg></g></svg>